<?xml version="1.0" encoding="utf-8"?>
<!-- Generator: Adobe Illustrator 15.0.0, SVG Export Plug-In . SVG Version: 6.00 Build 0)  -->
<!DOCTYPE svg PUBLIC "-//W3C//DTD SVG 1.1//EN" "http://www.w3.org/Graphics/SVG/1.1/DTD/svg11.dtd">
<svg version="1.1" id="Layer_1" xmlns="http://www.w3.org/2000/svg" xmlns:xlink="http://www.w3.org/1999/xlink" x="0px" y="0px"
	 width="64px" height="64px" viewBox="0 0 64 64" enable-background="new 0 0 64 64" xml:space="preserve">
<g>
	<circle fill="#FFFFFF" cx="31.564" cy="31.288" r="29.013"/>
	<g>
		<path d="M31.443-0.5c8.951,0,16.531,3.105,22.742,9.315C60.393,14.987,63.5,22.548,63.5,31.5c0,8.954-3.049,16.457-9.145,22.514
			C47.918,60.338,40.279,63.5,31.443,63.5c-8.649,0-16.153-3.143-22.514-9.43C2.644,47.786-0.5,40.264-0.5,31.501
			c0-8.723,3.144-16.285,9.429-22.685C15.138,2.605,22.643-0.5,31.443-0.5z M31.557,5.272c-7.276,0-13.428,2.572-18.457,7.715
			C7.88,18.283,5.271,24.454,5.271,31.5c0,7.125,2.59,13.257,7.77,18.4c5.181,5.182,11.352,7.771,18.514,7.771
			c7.123,0,13.334-2.608,18.629-7.828c5.029-4.876,7.543-10.989,7.543-18.343c0-7.313-2.553-13.485-7.656-18.513
			C45.004,7.842,38.832,5.272,31.557,5.272z M43.615,23.956v5.486H20.358v-5.486H43.615z M43.615,34.243v5.483H20.358v-5.483H43.615
			z"/>
	</g>
</g>
</svg>
