<?xml version="1.0" encoding="utf-8"?>
<!-- Generator: Adobe Illustrator 15.0.0, SVG Export Plug-In . SVG Version: 6.00 Build 0)  -->
<!DOCTYPE svg PUBLIC "-//W3C//DTD SVG 1.1//EN" "http://www.w3.org/Graphics/SVG/1.1/DTD/svg11.dtd">
<svg version="1.1" id="Layer_1" xmlns="http://www.w3.org/2000/svg" xmlns:xlink="http://www.w3.org/1999/xlink" x="0px" y="0px"
	 width="64.5px" height="64.5px" viewBox="159.75 159.767 64.5 64.5" enable-background="new 159.75 159.767 64.5 64.5"
	 xml:space="preserve">
<path d="M192,159.767c-17.811,0-32.25,14.439-32.25,32.25c0,17.809,14.439,32.25,32.25,32.25c17.811,0,32.25-14.441,32.25-32.25
	C224.25,174.206,209.811,159.767,192,159.767z M192,218.22c-14.449,0-26.204-11.756-26.204-26.203c0-3.025,0.521-5.929,1.469-8.633
	l10.249,4.563c-0.276,1.372-0.426,2.802-0.426,4.28c0,12.875,9.61,16.502,15.656,16.502c3.565,0,6.651-1.15,9.066-2.839
	c0.46-0.329,0.875-0.66,1.258-0.998l-4.701-5.712c-0.14,0.157-0.283,0.307-0.431,0.441c-1.828,1.733-3.838,1.733-4.287,1.733
	c-4.919,0-6.979-5.189-7.006-9.347l28.246,12.575c0.033,0.006,0.061,0.006,0.088,0.012C210.521,212.711,201.893,218.22,192,218.22z
	 M217.251,198.713l-29.132-13.003c1.051-1.903,2.725-3.334,5.228-3.334c1.451,0,2.602,0.481,3.509,1.088
	c0.376,0.272,0.703,0.544,0.979,0.817l5.252-5.405c-3.527-3.032-7.537-3.574-10.16-3.574c-6.162,0-10.522,2.664-13.093,6.709
	l-9.742-4.345c4.689-7.133,12.757-11.854,21.909-11.854c14.449,0,26.205,11.754,26.205,26.205c0,2.34-0.313,4.604-0.891,6.763
	C217.291,198.756,217.275,198.736,217.251,198.713z"/>
</svg>
