<?xml version="1.0" encoding="utf-8"?>
<!-- Generator: Adobe Illustrator 24.2.1, SVG Export Plug-In . SVG Version: 6.00 Build 0)  -->
<svg version="1.1" xmlns="http://www.w3.org/2000/svg" xmlns:xlink="http://www.w3.org/1999/xlink" x="0px" y="0px"
	 viewBox="0 0 800 800" style="enable-background:new 0 0 800 800;" xml:space="preserve">
<style type="text/css">
	.st0{display:none;}
	.st1{display:inline;}
	.st2{fill:#FFFFFF;stroke:#FFFFFF;stroke-width:50;stroke-miterlimit:10;}
	.st3{fill:#FFFFFF;}
	.st4{fill:#053482;}
</style>
<g id="Layer_1">
	<g id="Layer_5" class="st0">
		<g class="st1">
			<path class="st2" d="M728,728H72V72h656V728z M73,727h654V73H73V727z"/>
			<path class="st2" d="M728,72H72v656h656V72L728,72z M73,727V73h654v654H73L73,727z"/>
		</g>
	</g>
	<g id="Layer_3_1_">
	</g>
</g>
<g id="Layer_4">
	<g>
		<path class="st3" d="M438.3,797.2c-25.4-9.2-54.6-24-81.6-27c0.4,15.3,0.4,16.9,2.1,28.8h87C443.2,798.4,440.8,797.8,438.3,797.2z
			"/>
		<path class="st3" d="M16.7,357.2C36,328,69.8,318.5,100,306.5c-2.2-14-9.1-26.9-14-40.2c-4.9-20.1-6.5-41-7.6-61.9
			c-2.2-6.5-4.5-12.9-6.8-19.4c13.3,3.1,25.8,15.6,36.8,23.2c11.8,6.8,23.5,13.7,35.3,20.5c0.8-0.4,1.5-0.8,1.9-0.8
			c0-3.4-7.6-27-10.3-41.4c0-25.1,1.9-50.9,9.9-74.8c17.8-28.5,32.6-41.4,63-53.9c3.4-7.9,11.8-36.4,24.7-36.4
			c4.2,13.3,5.4,27,6.5,41c6.5,2.7,12.9,5.3,19.4,8c19,0,25.9-25.8,41.8-25.8c1.1,16.4,2.2,32.7,3,49c4.6,3.5,19.4,20.5,23.2,23.2
			c5.7,11.4,18.2,34.6,16.3,47.5c-14.4,14.4,6.1,48.2,6.1,65.7c-5,3-9.9,6.1-15.2,9.5c17.8,14.1,17.1,16,1.5,30
			c-0.4,23.6-1.1,47.5-1.9,71.4c-11-2.6-25-15.5-34.5-22c-2.7-4.2-11.4-22.4-19-14.8c4.5,13.3,8.7,19,8.7,33
			c16.3,11,30,27.7,46.7,38.7c1.1,1.9,2.2,3.8,3,6.1c22.8,17.1,26.2,47.1,33.8,72.5c7.2,60,0,118.8-2.7,179.2
			c0.8,0.8,1.5,1.6,1.9,2.7c33.8,13.3,75.5,31.1,98.3,61.5c23.2,12.9,54.7,18.2,80.5,24.7c4.6-1.2,4.6-1.2,28.1-13.7
			c7.2-1.9,14.1-3.8,20.9-5.3c4.9-4.6,9.9-9.1,14.8-13.3c-48.6-27-97.2-53.9-145.8-80.5c0.4-1.6,0.8-3.1,0.8-4.6
			c39.9-73.2,79.7-146.5,119.6-219.4c1.9-0.3,3.8-0.7,5.7-1.1c61.5,32.3,122.6,65,183.7,97.6c5.3,6.1,12.9,11.4,12.9,20.1
			c-39.5,75.5-79.3,151-119.2,226.6c-5,17.8-5,17.8-9.9,27.7c-18.8,20.2-39.6,34.3-65.6,42.4H799V1H0v374.2
			C4.5,368.4,9.9,362.4,16.7,357.2z"/>
		<path class="st3" d="M445.7,799h-87c0,0.3,0.1,0.7,0.1,1h90.8C448.4,799.7,447,799.3,445.7,799z"/>
		<path class="st3" d="M0,1h799v798H596.3c-1.1,0.3-2.2,0.7-3.4,1h207V0H0V1z"/>
		<path class="st4" d="M596.3,799c25.9-8.1,46.7-22.2,65.6-42.4c4.9-9.9,4.9-9.9,9.9-27.7c39.9-75.6,79.7-151.1,119.2-226.6
			c0-8.7-7.6-14-12.9-20.1c-61.1-32.6-122.2-65.3-183.7-97.6c-1.9,0.4-3.8,0.8-5.7,1.1c-39.9,72.9-79.7,146.2-119.6,219.4
			c0,1.5-0.4,3-0.8,4.6c48.6,26.6,97.2,53.5,145.8,80.5c-4.9,4.2-9.9,8.7-14.8,13.3c-6.8,1.5-13.7,3.4-20.9,5.3
			c-23.5,12.5-23.5,12.5-28.1,13.7c-25.8-6.5-57.3-11.8-80.5-24.7c-22.8-30.4-64.5-48.2-98.3-61.5c-0.4-1.1-1.1-1.9-1.9-2.7
			c2.7-60.4,9.9-119.2,2.7-179.2c-7.6-25.4-11-55.4-33.8-72.5c-0.8-2.3-1.9-4.2-3-6.1c-16.7-11-30.4-27.7-46.7-38.7
			c0-14-4.2-19.7-8.7-33c7.6-7.6,16.3,10.6,19,14.8c9.5,6.5,23.5,19.4,34.5,22c0.8-23.9,1.5-47.8,1.9-71.4c15.6-14,16.3-15.9-1.5-30
			c5.3-3.4,10.2-6.5,15.2-9.5c0-17.5-20.5-51.3-6.1-65.7c1.9-12.9-10.6-36.1-16.3-47.5c-3.8-2.7-18.6-19.7-23.2-23.2
			c-0.8-16.3-1.9-32.6-3-49c-15.9,0-22.8,25.8-41.8,25.8c-6.5-2.7-12.9-5.3-19.4-8c-1.1-14-2.3-27.7-6.5-41
			c-12.9,0-21.3,28.5-24.7,36.4c-30.4,12.5-45.2,25.4-63,53.9c-8,23.9-9.9,49.7-9.9,74.8c2.7,14.4,10.3,38,10.3,41.4
			c-0.4,0-1.1,0.4-1.9,0.8c-11.8-6.8-23.5-13.7-35.3-20.5c-11-7.6-23.5-20.1-36.8-23.2c2.3,6.5,4.6,12.9,6.8,19.4
			c1.1,20.9,2.7,41.8,7.6,61.9c4.9,13.3,11.8,26.2,14,40.2c-30.2,12-64,21.5-83.3,50.7c-6.8,5.2-12.2,11.2-16.7,18V800h358.9
			c0-0.3-0.1-0.7-0.1-1c-1.7-11.9-1.7-13.5-2.1-28.8c27,3,56.2,17.8,81.6,27c2.5,0.6,4.9,1.2,7.4,1.8c1.3,0.3,2.7,0.7,4,1H593
			C594.1,799.7,595.2,799.3,596.3,799z"/>
	</g>
</g>
</svg>
