<?xml version="1.0" standalone="no"?>
<!DOCTYPE svg PUBLIC "-//W3C//DTD SVG 20010904//EN"
 "http://www.w3.org/TR/2001/REC-SVG-20010904/DTD/svg10.dtd">
<svg version="1.0" xmlns="http://www.w3.org/2000/svg"
 width="700.000000pt" height="700.000000pt" viewBox="0 0 700.000000 700.000000"
 preserveAspectRatio="xMidYMid meet">
<metadata>
Created by potrace 1.14, written by Peter Selinger 2001-2017
</metadata>
<g transform="translate(0.000000,700.000000) scale(0.100000,-0.100000)"
fill="#000000" stroke="none">
<path d="M1989 6795 c-14 -7 -38 -32 -53 -54 -27 -38 -106 -211 -106 -231 0
-6 -42 -30 -92 -54 -131 -63 -203 -113 -294 -208 -190 -198 -236 -336 -259
-763 -5 -103 -3 -118 30 -245 54 -206 59 -229 52 -236 -10 -11 -306 165 -411
244 -92 70 -212 140 -221 130 -3 -3 8 -45 24 -94 22 -69 31 -123 40 -242 16
-212 43 -350 90 -463 47 -115 81 -215 81 -243 0 -18 -22 -30 -143 -76 -270
-103 -391 -173 -496 -287 -34 -37 -91 -97 -125 -133 -35 -36 -73 -78 -84 -94
l-22 -29 0 -1858 0 -1859 1571 0 1572 0 -6 28 c-3 16 -9 75 -13 130 -5 76 -4
102 5 102 70 0 288 -69 543 -171 84 -34 178 -67 208 -75 43 -10 193 -13 683
-14 712 0 658 -6 842 87 106 53 190 111 298 206 86 76 111 117 151 247 18 59
92 211 247 505 793 1504 821 1558 814 1593 -4 21 -26 54 -63 92 -52 54 -90 77
-412 248 -1052 560 -1230 652 -1258 652 -28 0 -44 -29 -546 -949 -284 -522
-522 -963 -529 -980 -6 -16 -9 -32 -6 -35 3 -3 171 -97 374 -209 204 -112 488
-268 632 -348 144 -79 261 -146 260 -149 -1 -3 -28 -29 -59 -59 -52 -48 -66
-56 -149 -78 -53 -14 -144 -50 -212 -84 -137 -69 -107 -68 -337 -12 -194 46
-330 88 -415 127 -56 26 -90 53 -170 132 -59 59 -139 126 -195 163 -99 66
-356 195 -498 251 -45 18 -85 37 -89 43 -9 15 -5 122 13 387 8 118 18 373 21
565 7 436 -2 562 -57 765 -73 269 -107 344 -212 457 -38 40 -68 77 -68 82 0 5
-24 27 -54 49 -29 22 -107 89 -172 147 -66 59 -133 117 -151 129 -28 18 -33
29 -39 76 -4 30 -21 96 -40 147 -18 50 -30 94 -27 97 4 3 18 6 33 6 30 0 54
-23 99 -94 20 -33 61 -71 123 -117 96 -71 193 -128 202 -118 3 3 9 143 13 311
l8 306 53 55 c30 33 52 65 52 78 0 13 -21 44 -55 77 -30 30 -55 56 -55 58 0 1
27 19 60 40 75 46 75 50 19 240 -52 178 -62 286 -30 339 39 66 20 162 -69 349
-43 90 -59 112 -151 204 l-103 104 -12 210 c-7 116 -15 212 -18 215 -2 3 -21
0 -41 -7 -22 -7 -67 -43 -119 -95 -131 -131 -162 -140 -286 -86 -82 35 -85 38
-88 71 -5 65 -32 245 -43 283 -11 40 -20 44 -60 22z"/>
</g>
</svg>
